<svg id="visual" viewBox="0 0 1536 450" width="1536" height="450" xmlns="http://www.w3.org/2000/svg" xmlns:xlink="http://www.w3.org/1999/xlink" version="1.1"><rect x="0" y="0" width="1536" height="450" fill="#C62368"></rect><path d="M0 279L36.5 278.3C73 277.7 146 276.3 219.2 282.8C292.3 289.3 365.7 303.7 438.8 304.2C512 304.7 585 291.3 658.2 286C731.3 280.7 804.7 283.3 877.8 293C951 302.7 1024 319.3 1097.2 323.8C1170.3 328.3 1243.7 320.7 1316.8 309.8C1390 299 1463 285 1499.5 278L1536 271L1536 451L1499.5 451C1463 451 1390 451 1316.8 451C1243.7 451 1170.3 451 1097.2 451C1024 451 951 451 877.8 451C804.7 451 731.3 451 658.2 451C585 451 512 451 438.8 451C365.7 451 292.3 451 219.2 451C146 451 73 451 36.5 451L0 451Z" fill="#ee68f0"></path><path d="M0 295L36.5 296.2C73 297.3 146 299.7 219.2 310.7C292.3 321.7 365.7 341.3 438.8 346.2C512 351 585 341 658.2 340.2C731.3 339.3 804.7 347.7 877.8 345.3C951 343 1024 330 1097.2 318.7C1170.3 307.3 1243.7 297.7 1316.8 305.7C1390 313.7 1463 339.3 1499.5 352.2L1536 365L1536 451L1499.5 451C1463 451 1390 451 1316.8 451C1243.7 451 1170.3 451 1097.2 451C1024 451 951 451 877.8 451C804.7 451 731.3 451 658.2 451C585 451 512 451 438.8 451C365.7 451 292.3 451 219.2 451C146 451 73 451 36.5 451L0 451Z" fill="#c07bfb"></path><path d="M0 380L36.5 374.5C73 369 146 358 219.2 350.5C292.3 343 365.7 339 438.8 342.7C512 346.3 585 357.7 658.2 356C731.3 354.3 804.7 339.7 877.8 332.2C951 324.7 1024 324.3 1097.2 332.8C1170.3 341.3 1243.7 358.7 1316.8 366.7C1390 374.7 1463 373.3 1499.5 372.7L1536 372L1536 451L1499.5 451C1463 451 1390 451 1316.8 451C1243.7 451 1170.3 451 1097.2 451C1024 451 951 451 877.8 451C804.7 451 731.3 451 658.2 451C585 451 512 451 438.8 451C365.7 451 292.3 451 219.2 451C146 451 73 451 36.5 451L0 451Z" fill="#9087fb"></path><path d="M0 388L36.5 388.3C73 388.7 146 389.3 219.2 391C292.3 392.7 365.7 395.3 438.8 393.2C512 391 585 384 658.2 381.7C731.3 379.3 804.7 381.7 877.8 387.2C951 392.7 1024 401.3 1097.2 401.7C1170.3 402 1243.7 394 1316.8 389C1390 384 1463 382 1499.5 381L1536 380L1536 451L1499.5 451C1463 451 1390 451 1316.8 451C1243.7 451 1170.3 451 1097.2 451C1024 451 951 451 877.8 451C804.7 451 731.3 451 658.2 451C585 451 512 451 438.8 451C365.7 451 292.3 451 219.2 451C146 451 73 451 36.5 451L0 451Z" fill="#618ef2"></path><path d="M0 400L36.5 402.3C73 404.7 146 409.3 219.2 409.3C292.3 409.3 365.7 404.7 438.8 401.8C512 399 585 398 658.2 397.2C731.3 396.3 804.7 395.7 877.8 398.7C951 401.7 1024 408.3 1097.2 412.5C1170.3 416.7 1243.7 418.3 1316.8 418.3C1390 418.3 1463 416.7 1499.5 415.8L1536 415L1536 451L1499.5 451C1463 451 1390 451 1316.8 451C1243.7 451 1170.3 451 1097.2 451C1024 451 951 451 877.8 451C804.7 451 731.3 451 658.2 451C585 451 512 451 438.8 451C365.7 451 292.3 451 219.2 451C146 451 73 451 36.5 451L0 451Z" fill="#3891e1"></path></svg>