<svg id="visual" viewBox="0 0 960 540" width="960" height="540" xmlns="http://www.w3.org/2000/svg" xmlns:xlink="http://www.w3.org/1999/xlink" version="1.1"><rect x="0" y="0" width="960" height="540" fill="#50e678"></rect><path d="M0 134L22.8 142.5C45.7 151 91.3 168 137 164C182.7 160 228.3 135 274 131.8C319.7 128.7 365.3 147.3 411.2 158.2C457 169 503 172 548.8 169.8C594.7 167.7 640.3 160.3 686 145.8C731.7 131.3 777.3 109.7 823 103.5C868.7 97.3 914.3 106.7 937.2 111.3L960 116L960 0L937.2 0C914.3 0 868.7 0 823 0C777.3 0 731.7 0 686 0C640.3 0 594.7 0 548.8 0C503 0 457 0 411.2 0C365.3 0 319.7 0 274 0C228.3 0 182.7 0 137 0C91.3 0 45.7 0 22.8 0L0 0Z" fill="#47a3f4" stroke-linecap="round" stroke-linejoin="miter"></path></svg>