<svg id="visual" viewBox="0 0 960 540" width="960" height="540" xmlns="http://www.w3.org/2000/svg" xmlns:xlink="http://www.w3.org/1999/xlink" version="1.1"><rect x="0" y="0" width="960" height="540" fill="#50e678"></rect><path d="M0 81L20 76.3C40 71.7 80 62.3 120 73.5C160 84.7 200 116.3 240 124.3C280 132.3 320 116.7 360 107C400 97.3 440 93.7 480 84.3C520 75 560 60 600 62.8C640 65.7 680 86.3 720 115.7C760 145 800 183 840 189.7C880 196.3 920 171.7 940 159.3L960 147L960 0L940 0C920 0 880 0 840 0C800 0 760 0 720 0C680 0 640 0 600 0C560 0 520 0 480 0C440 0 400 0 360 0C320 0 280 0 240 0C200 0 160 0 120 0C80 0 40 0 20 0L0 0Z" fill="#47a3f4" stroke-linecap="round" stroke-linejoin="miter"></path></svg>