<svg id="visual" viewBox="0 0 960 540" width="960" height="540" xmlns="http://www.w3.org/2000/svg" xmlns:xlink="http://www.w3.org/1999/xlink" version="1.1"><path d="M0 153L22.8 158.5C45.7 164 91.3 175 137 165.5C182.7 156 228.3 126 274 119.8C319.7 113.7 365.3 131.3 411.2 141.7C457 152 503 155 548.8 157.2C594.7 159.3 640.3 160.7 686 149.2C731.7 137.7 777.3 113.3 823 103.8C868.7 94.3 914.3 99.7 937.2 102.3L960 105L960 0L937.2 0C914.3 0 868.7 0 823 0C777.3 0 731.7 0 686 0C640.3 0 594.7 0 548.8 0C503 0 457 0 411.2 0C365.3 0 319.7 0 274 0C228.3 0 182.7 0 137 0C91.3 0 45.7 0 22.8 0L0 0Z" fill="#50e678" stroke-linecap="round" stroke-linejoin="miter"></path></svg>