<svg id="visual" viewBox="0 0 1523 302" width="1523" height="302" xmlns="http://www.w3.org/2000/svg" xmlns:xlink="http://www.w3.org/1999/xlink" version="1.1"><rect x="0" y="0" width="1523" height="302" fill="#a852e9"></rect><path d="M0 218L36.3 215.7C72.7 213.3 145.3 208.7 217.8 214.3C290.3 220 362.7 236 435.2 238.7C507.7 241.3 580.3 230.7 652.8 217.7C725.3 204.7 797.7 189.3 870.2 190.7C942.7 192 1015.3 210 1087.8 215.3C1160.3 220.7 1232.7 213.3 1305.2 197.7C1377.7 182 1450.3 158 1486.7 146L1523 134L1523 303L1486.7 303C1450.3 303 1377.7 303 1305.2 303C1232.7 303 1160.3 303 1087.8 303C1015.3 303 942.7 303 870.2 303C797.7 303 725.3 303 652.8 303C580.3 303 507.7 303 435.2 303C362.7 303 290.3 303 217.8 303C145.3 303 72.7 303 36.3 303L0 303Z" fill="#ffffff" stroke-linecap="round" stroke-linejoin="miter"></path></svg>