<svg id="visual" viewBox="0 0 900 600" width="900" height="600" xmlns="http://www.w3.org/2000/svg" xmlns:xlink="http://www.w3.org/1999/xlink" version="1.1"><rect x="0" y="0" width="900" height="600" fill="#f2f2f2"></rect><defs><linearGradient id="grad1_0" x1="33.3%" y1="100%" x2="100%" y2="0%"><stop offset="20%" stop-color="#f2f2f2" stop-opacity="1"></stop><stop offset="80%" stop-color="#f2f2f2" stop-opacity="1"></stop></linearGradient></defs><defs><linearGradient id="grad2_0" x1="0%" y1="100%" x2="66.7%" y2="0%"><stop offset="20%" stop-color="#f2f2f2" stop-opacity="1"></stop><stop offset="80%" stop-color="#f2f2f2" stop-opacity="1"></stop></linearGradient></defs><g transform="translate(900, 600)"><path d="M-270.4 0C-220.4 -22.3 -170.4 -44.5 -154.2 -89C-137.9 -133.5 -155.3 -200.2 -135.2 -234.2C-115.1 -268.1 -57.6 -269.3 0 -270.4L0 0Z" fill="#04cc6f"></path></g><g transform="translate(0, 0)"><path d="M270.4 0C224.1 24.4 177.8 48.8 161.1 93C144.3 137.2 157.1 201.3 135.2 234.2C113.3 267.1 56.6 268.7 0 270.4L0 0Z" fill="#04cc6f"></path></g></svg>