<svg id="visual" viewBox="0 0 900 600" width="900" height="600" xmlns="http://www.w3.org/2000/svg" xmlns:xlink="http://www.w3.org/1999/xlink" version="1.1"><path d="M0 79L13.7 76C27.3 73 54.7 67 82 75C109.3 83 136.7 105 163.8 116C191 127 218 127 245.2 114C272.3 101 299.7 75 327 76C354.3 77 381.7 105 409 115C436.3 125 463.7 117 491 112C518.3 107 545.7 105 573 101C600.3 97 627.7 91 654.8 94C682 97 709 109 736.2 109C763.3 109 790.7 97 818 95C845.3 93 872.7 101 886.3 105L900 109L900 0L886.3 0C872.7 0 845.3 0 818 0C790.7 0 763.3 0 736.2 0C709 0 682 0 654.8 0C627.7 0 600.3 0 573 0C545.7 0 518.3 0 491 0C463.7 0 436.3 0 409 0C381.7 0 354.3 0 327 0C299.7 0 272.3 0 245.2 0C218 0 191 0 163.8 0C136.7 0 109.3 0 82 0C54.7 0 27.3 0 13.7 0L0 0Z" fill="#ffcb64"></path><path d="M0 217L13.7 213C27.3 209 54.7 201 82 198C109.3 195 136.7 197 163.8 214C191 231 218 263 245.2 266C272.3 269 299.7 243 327 227C354.3 211 381.7 205 409 205C436.3 205 463.7 211 491 229C518.3 247 545.7 277 573 277C600.3 277 627.7 247 654.8 242C682 237 709 257 736.2 260C763.3 263 790.7 249 818 231C845.3 213 872.7 191 886.3 180L900 169L900 107L886.3 103C872.7 99 845.3 91 818 93C790.7 95 763.3 107 736.2 107C709 107 682 95 654.8 92C627.7 89 600.3 95 573 99C545.7 103 518.3 105 491 110C463.7 115 436.3 123 409 113C381.7 103 354.3 75 327 74C299.7 73 272.3 99 245.2 112C218 125 191 125 163.8 114C136.7 103 109.3 81 82 73C54.7 65 27.3 71 13.7 74L0 77Z" fill="#ffc24c"></path><path d="M0 277L13.7 274C27.3 271 54.7 265 82 261C109.3 257 136.7 255 163.8 267C191 279 218 305 245.2 305C272.3 305 299.7 279 327 264C354.3 249 381.7 245 409 249C436.3 253 463.7 265 491 280C518.3 295 545.7 313 573 314C600.3 315 627.7 299 654.8 299C682 299 709 315 736.2 317C763.3 319 790.7 307 818 290C845.3 273 872.7 251 886.3 240L900 229L900 167L886.3 178C872.7 189 845.3 211 818 229C790.7 247 763.3 261 736.2 258C709 255 682 235 654.8 240C627.7 245 600.3 275 573 275C545.7 275 518.3 245 491 227C463.7 209 436.3 203 409 203C381.7 203 354.3 209 327 225C299.7 241 272.3 267 245.2 264C218 261 191 229 163.8 212C136.7 195 109.3 193 82 196C54.7 199 27.3 207 13.7 211L0 215Z" fill="#ffb931"></path><path d="M0 307L13.7 309C27.3 311 54.7 315 82 312C109.3 309 136.7 299 163.8 309C191 319 218 349 245.2 352C272.3 355 299.7 331 327 314C354.3 297 381.7 287 409 286C436.3 285 463.7 293 491 309C518.3 325 545.7 349 573 355C600.3 361 627.7 349 654.8 346C682 343 709 349 736.2 346C763.3 343 790.7 331 818 320C845.3 309 872.7 299 886.3 294L900 289L900 227L886.3 238C872.7 249 845.3 271 818 288C790.7 305 763.3 317 736.2 315C709 313 682 297 654.8 297C627.7 297 600.3 313 573 312C545.7 311 518.3 293 491 278C463.7 263 436.3 251 409 247C381.7 243 354.3 247 327 262C299.7 277 272.3 303 245.2 303C218 303 191 277 163.8 265C136.7 253 109.3 255 82 259C54.7 263 27.3 269 13.7 272L0 275Z" fill="#ffb000"></path><path d="M0 391L13.7 391C27.3 391 54.7 391 82 381C109.3 371 136.7 351 163.8 362C191 373 218 415 245.2 422C272.3 429 299.7 401 327 383C354.3 365 381.7 357 409 357C436.3 357 463.7 365 491 378C518.3 391 545.7 409 573 414C600.3 419 627.7 411 654.8 405C682 399 709 395 736.2 394C763.3 393 790.7 395 818 389C845.3 383 872.7 369 886.3 362L900 355L900 287L886.3 292C872.7 297 845.3 307 818 318C790.7 329 763.3 341 736.2 344C709 347 682 341 654.8 344C627.7 347 600.3 359 573 353C545.7 347 518.3 323 491 307C463.7 291 436.3 283 409 284C381.7 285 354.3 295 327 312C299.7 329 272.3 353 245.2 350C218 347 191 317 163.8 307C136.7 297 109.3 307 82 310C54.7 313 27.3 309 13.7 307L0 305Z" fill="#e7a002"></path><path d="M0 535L13.7 536C27.3 537 54.7 539 82 540C109.3 541 136.7 541 163.8 543C191 545 218 549 245.2 553C272.3 557 299.7 561 327 559C354.3 557 381.7 549 409 539C436.3 529 463.7 517 491 514C518.3 511 545.7 517 573 522C600.3 527 627.7 531 654.8 531C682 531 709 527 736.2 530C763.3 533 790.7 543 818 548C845.3 553 872.7 553 886.3 553L900 553L900 353L886.3 360C872.7 367 845.3 381 818 387C790.7 393 763.3 391 736.2 392C709 393 682 397 654.8 403C627.7 409 600.3 417 573 412C545.7 407 518.3 389 491 376C463.7 363 436.3 355 409 355C381.7 355 354.3 363 327 381C299.7 399 272.3 427 245.2 420C218 413 191 371 163.8 360C136.7 349 109.3 369 82 379C54.7 389 27.3 389 13.7 389L0 389Z" fill="#d09003"></path><path d="M0 601L13.7 601C27.3 601 54.7 601 82 601C109.3 601 136.7 601 163.8 601C191 601 218 601 245.2 601C272.3 601 299.7 601 327 601C354.3 601 381.7 601 409 601C436.3 601 463.7 601 491 601C518.3 601 545.7 601 573 601C600.3 601 627.7 601 654.8 601C682 601 709 601 736.2 601C763.3 601 790.7 601 818 601C845.3 601 872.7 601 886.3 601L900 601L900 551L886.3 551C872.7 551 845.3 551 818 546C790.7 541 763.3 531 736.2 528C709 525 682 529 654.8 529C627.7 529 600.3 525 573 520C545.7 515 518.3 509 491 512C463.7 515 436.3 527 409 537C381.7 547 354.3 555 327 557C299.7 559 272.3 555 245.2 551C218 547 191 543 163.8 541C136.7 539 109.3 539 82 538C54.7 537 27.3 535 13.7 534L0 533Z" fill="#ba8104"></path></svg>